<svg xmlns="http://www.w3.org/2000/svg" width="150" height="150" viewBox="0 0 150 150" version="1.1"><path d="M 94.485 44.015 L 88.548 50.015 92.265 53.732 L 95.982 57.449 101.491 52.009 C 104.521 49.016, 107 46.079, 107 45.480 C 107 44.882, 105.520 42.958, 103.711 41.204 L 100.421 38.016 94.485 44.015 M 46.214 42.279 L 43.036 45.558 59.288 61.788 L 75.540 78.018 81.997 71.503 L 88.454 64.988 84.751 61.284 L 81.047 57.581 77.999 60.501 L 74.951 63.421 62.711 51.211 C 55.979 44.495, 50.228 39, 49.932 39 C 49.635 39, 47.962 40.476, 46.214 42.279 M 44.975 79.525 L 41.558 83.051 57.767 99.259 L 73.975 115.467 80.487 109.012 C 84.069 105.462, 87 102.261, 87 101.898 C 87 101.534, 85.389 100.009, 83.421 98.507 L 79.842 95.777 77.136 98.369 L 74.431 100.961 61.981 88.481 C 55.133 81.616, 49.274 76, 48.961 76 C 48.648 76, 46.855 77.586, 44.975 79.525 M 93.476 82.046 L 87.500 88.107 91 91.027 C 92.925 92.632, 94.740 93.958, 95.034 93.973 C 95.328 93.988, 98.016 91.521, 101.009 88.491 L 106.449 82.982 102.951 79.484 L 99.452 75.985 93.476 82.046" stroke="none" fill="#cc44f4" fill-rule="evenodd"/><path d="M 12.500 1.377 C 7.498 3.582, 3.231 7.826, 1.541 12.278 C 0.123 16.013, -0.030 23.439, 0.219 76.665 L 0.500 136.829 3.513 141.165 C 5.275 143.699, 8.375 146.435, 10.975 147.750 L 15.424 150 74.744 150 C 126.024 150, 134.566 149.790, 137.768 148.452 C 142.740 146.375, 145.720 143.440, 148.599 137.783 L 151 133.066 150.967 73.783 L 150.934 14.500 148.217 10.597 C 146.723 8.450, 143.771 5.300, 141.658 3.597 L 137.816 0.500 76.658 0.277 C 27.740 0.099, 14.900 0.319, 12.500 1.377 M 0.470 75 C 0.470 108.275, 0.596 121.888, 0.749 105.250 C 0.903 88.613, 0.903 61.388, 0.749 44.750 C 0.596 28.113, 0.470 41.725, 0.470 75 M 94.485 44.015 L 88.548 50.015 92.265 53.732 L 95.982 57.449 101.491 52.009 C 104.521 49.016, 107 46.079, 107 45.480 C 107 44.882, 105.520 42.958, 103.711 41.204 L 100.421 38.016 94.485 44.015 M 46.214 42.279 L 43.036 45.558 59.288 61.788 L 75.540 78.018 81.997 71.503 L 88.454 64.988 84.751 61.284 L 81.047 57.581 77.999 60.501 L 74.951 63.421 62.711 51.211 C 55.979 44.495, 50.228 39, 49.932 39 C 49.635 39, 47.962 40.476, 46.214 42.279 M 44.975 79.525 L 41.558 83.051 57.767 99.259 L 73.975 115.467 80.487 109.012 C 84.069 105.462, 87 102.261, 87 101.898 C 87 101.534, 85.389 100.009, 83.421 98.507 L 79.842 95.777 77.136 98.369 L 74.431 100.961 61.981 88.481 C 55.133 81.616, 49.274 76, 48.961 76 C 48.648 76, 46.855 77.586, 44.975 79.525 M 93.476 82.046 L 87.500 88.107 91 91.027 C 92.925 92.632, 94.740 93.958, 95.034 93.973 C 95.328 93.988, 98.016 91.521, 101.009 88.491 L 106.449 82.982 102.951 79.484 L 99.452 75.985 93.476 82.046" stroke="none" fill="#444443" fill-rule="evenodd"/></svg>