<svg xmlns="http://www.w3.org/2000/svg" viewBox="0 0 48 48"><defs><style>.cls-1{fill:#9fdbf3;}.cls-2{fill:#b2e5fb;}.cls-3{fill:#dad7e5;}.cls-4{fill:#edebf2;}.cls-5{fill:#c6c3d8;}.cls-6{fill:#9dcc6b;}.cls-7{fill:#db5669;}.cls-8{fill:#fc6;}.cls-9{fill:#b5e08c;}.cls-10{fill:#f26674;}.cls-11{fill:#ffde76;}</style></defs><title>Analytic Pie Chart</title><g id="Analytic_Pie_Chart" data-name="Analytic Pie Chart"><path class="cls-1" d="M47,6V30H1V6A4,4,0,0,1,4,2.13C4.67,1.94,2.21,2,43,2A4,4,0,0,1,47,6Z"/><path class="cls-2" d="M47,6V28H29.87A25.87,25.87,0,0,1,4,2.13C4.82,1.9,43.12,2,43,2A4,4,0,0,1,47,6Z"/><path class="cls-3" d="M47,30c0,1.9.13,2.83-.52,4A4,4,0,0,1,43,36H5a4,4,0,0,1-4-4V30Z"/><path class="cls-4" d="M47,30c0,1.9.13,2.83-.52,4C46.11,34,48.63,34,8,34a4,4,0,0,1-4-4Z"/><rect class="cls-5" x="18" y="36" width="12" height="10"/><path class="cls-3" d="M30,38v8H20a8,8,0,0,1,8-8Z"/><path class="cls-3" d="M33,46H15a1,1,0,0,1,0-2H33A1,1,0,0,1,33,46Z"/><path class="cls-6" d="M23,16a8,8,0,0,1-5.7,7.66c-.66-2.2-.19-.62-2.3-7.66V8A8,8,0,0,1,23,16Z"/><path class="cls-7" d="M17.3,23.66a8,8,0,0,1-9-12.1L15,16C17.16,23.18,16.65,21.49,17.3,23.66Z"/><path class="cls-8" d="M15,8v8L8.35,11.56A8,8,0,0,1,15,8Z"/><path class="cls-9" d="M21.57,20.56A7.9,7.9,0,0,1,17,22c-.29,0,0,.67-2-6V8A8,8,0,0,1,21.57,20.56Z"/><path class="cls-10" d="M16.8,22a8,8,0,0,1-7.58-9.86L15,16Z"/><path class="cls-11" d="M15,8v8L9.22,12.14a7.66,7.66,0,0,1,1.22-2.71A7.94,7.94,0,0,1,15,8Z"/><path d="M15,7a9,9,0,1,0,9,9A9,9,0,0,0,15,7ZM14,9.08v5.05l-4.2-2.8A7,7,0,0,1,14,9.08ZM8.69,13l5.45,3.64,1.8,6.3A7,7,0,0,1,8.69,13Zm9.17,9.39C15.63,14.56,16,17.61,16,9.08A7,7,0,0,1,17.86,22.38Z"/><path d="M41,11H27a1,1,0,0,0,0,2H41A1,1,0,0,0,41,11Z"/><path d="M41,15H27a1,1,0,0,0,0,2H41A1,1,0,0,0,41,15Z"/><path d="M37,19H27a1,1,0,0,0,0,2H37A1,1,0,0,0,37,19Z"/><path d="M43,1H5A5,5,0,0,0,0,6V32a5,5,0,0,0,5,5H17v8H15a1,1,0,0,0,0,2H33a1,1,0,0,0,0-2H31V37H43a5,5,0,0,0,5-5V6A5,5,0,0,0,43,1ZM2,6A3,3,0,0,1,5,3H43a3,3,0,0,1,3,3V29H2ZM29,45H19V37H29ZM46,32a3,3,0,0,1-3,3H5a3,3,0,0,1-3-3V31H46Z"/><path d="M8,34a1,1,0,0,0,0-2A1,1,0,0,0,8,34Z"/></g></svg>